<mxfile host="app.diagrams.net" modified="2021-04-23T10:26:18.676Z" agent="5.0 (Macintosh; Intel Mac OS X 10_15_7) AppleWebKit/605.1.15 (KHTML, like Gecko) Version/14.0.3 Safari/605.1.15" etag="L1ohpCoRp-gtWC2avc2k" version="14.6.5" type="github">
  <diagram id="begXMOKjxD-VHNFKXaLN" name="Page-1">
    <mxGraphModel dx="1426" dy="867" grid="1" gridSize="10" guides="1" tooltips="1" connect="1" arrows="1" fold="1" page="1" pageScale="1" pageWidth="827" pageHeight="1169" math="0" shadow="0">
      <root>
        <mxCell id="0" />
        <mxCell id="1" parent="0" />
        <mxCell id="JY9pmbTufr1GAne4njng-2" value="TExpression.class&#xa;(abstract)" style="swimlane;fontStyle=3;align=center;verticalAlign=top;childLayout=stackLayout;horizontal=1;startSize=40;horizontalStack=0;resizeParent=1;resizeParentMax=0;resizeLast=0;collapsible=1;marginBottom=0;" parent="1" vertex="1">
          <mxGeometry x="370" y="80" width="180" height="120" as="geometry">
            <mxRectangle x="220" y="90" width="100" height="26" as="alternateBounds" />
          </mxGeometry>
        </mxCell>
        <mxCell id="JY9pmbTufr1GAne4njng-3" value="+ AND_OPERATOR = &#39;AND&#39;&#xa;+ OR_OPERATOR = Â &#39;OR&#39;" style="text;strokeColor=none;fillColor=none;align=left;verticalAlign=top;spacingLeft=4;spacingRight=4;overflow=hidden;rotatable=0;points=[[0,0.5],[1,0.5]];portConstraint=eastwest;" parent="JY9pmbTufr1GAne4njng-2" vertex="1">
          <mxGeometry y="40" width="180" height="40" as="geometry" />
        </mxCell>
        <mxCell id="JY9pmbTufr1GAne4njng-4" value="" style="line;strokeWidth=1;fillColor=none;align=left;verticalAlign=middle;spacingTop=-1;spacingLeft=3;spacingRight=3;rotatable=0;labelPosition=right;points=[];portConstraint=eastwest;" parent="JY9pmbTufr1GAne4njng-2" vertex="1">
          <mxGeometry y="80" width="180" height="10" as="geometry" />
        </mxCell>
        <mxCell id="JY9pmbTufr1GAne4njng-5" value="+abstract dump(): string" style="text;strokeColor=none;fillColor=none;align=left;verticalAlign=top;spacingLeft=4;spacingRight=4;overflow=hidden;rotatable=0;points=[[0,0.5],[1,0.5]];portConstraint=eastwest;" parent="JY9pmbTufr1GAne4njng-2" vertex="1">
          <mxGeometry y="90" width="180" height="30" as="geometry" />
        </mxCell>
        <mxCell id="DMIW6I_9iaYC-AIP4fg_-6" style="edgeStyle=orthogonalEdgeStyle;rounded=0;orthogonalLoop=1;jettySize=auto;html=1;entryX=0.5;entryY=1;entryDx=0;entryDy=0;" parent="1" source="DMIW6I_9iaYC-AIP4fg_-1" target="JY9pmbTufr1GAne4njng-2" edge="1">
          <mxGeometry relative="1" as="geometry" />
        </mxCell>
        <mxCell id="DMIW6I_9iaYC-AIP4fg_-1" value="TFilter.class" style="swimlane;fontStyle=1;align=center;verticalAlign=top;childLayout=stackLayout;horizontal=1;startSize=26;horizontalStack=0;resizeParent=1;resizeParentMax=0;resizeLast=0;collapsible=1;marginBottom=0;" parent="1" vertex="1">
          <mxGeometry x="470" y="280" width="310" height="160" as="geometry" />
        </mxCell>
        <mxCell id="DMIW6I_9iaYC-AIP4fg_-2" value="- variable: string&#xa;- operator: string&#xa;- value: ?" style="text;strokeColor=none;fillColor=none;align=left;verticalAlign=top;spacingLeft=4;spacingRight=4;overflow=hidden;rotatable=0;points=[[0,0.5],[1,0.5]];portConstraint=eastwest;" parent="DMIW6I_9iaYC-AIP4fg_-1" vertex="1">
          <mxGeometry y="26" width="310" height="54" as="geometry" />
        </mxCell>
        <mxCell id="DMIW6I_9iaYC-AIP4fg_-3" value="" style="line;strokeWidth=1;fillColor=none;align=left;verticalAlign=middle;spacingTop=-1;spacingLeft=3;spacingRight=3;rotatable=0;labelPosition=right;points=[];portConstraint=eastwest;" parent="DMIW6I_9iaYC-AIP4fg_-1" vertex="1">
          <mxGeometry y="80" width="310" height="8" as="geometry" />
        </mxCell>
        <mxCell id="DMIW6I_9iaYC-AIP4fg_-4" value="+ __construct(string $variable, string $operator, $value)&#xa;- transform($value): string&#xa;+ dump() : string" style="text;strokeColor=none;fillColor=none;align=left;verticalAlign=top;spacingLeft=4;spacingRight=4;overflow=hidden;rotatable=0;points=[[0,0.5],[1,0.5]];portConstraint=eastwest;" parent="DMIW6I_9iaYC-AIP4fg_-1" vertex="1">
          <mxGeometry y="88" width="310" height="72" as="geometry" />
        </mxCell>
        <mxCell id="fzTyoeFtxnWJiMsBnYOy-11" style="edgeStyle=orthogonalEdgeStyle;rounded=0;orthogonalLoop=1;jettySize=auto;html=1;entryX=0.289;entryY=1;entryDx=0;entryDy=0;entryPerimeter=0;" parent="1" source="fzTyoeFtxnWJiMsBnYOy-2" target="JY9pmbTufr1GAne4njng-5" edge="1">
          <mxGeometry relative="1" as="geometry" />
        </mxCell>
        <mxCell id="fzTyoeFtxnWJiMsBnYOy-2" value="TCriteria.class" style="swimlane;fontStyle=1;align=center;verticalAlign=top;childLayout=stackLayout;horizontal=1;startSize=26;horizontalStack=0;resizeParent=1;resizeParentMax=0;resizeLast=0;collapsible=1;marginBottom=0;" parent="1" vertex="1">
          <mxGeometry x="140" y="280" width="300" height="256" as="geometry" />
        </mxCell>
        <mxCell id="fzTyoeFtxnWJiMsBnYOy-3" value="- expressions: Array" style="text;strokeColor=none;fillColor=none;align=left;verticalAlign=top;spacingLeft=4;spacingRight=4;overflow=hidden;rotatable=0;points=[[0,0.5],[1,0.5]];portConstraint=eastwest;" parent="fzTyoeFtxnWJiMsBnYOy-2" vertex="1">
          <mxGeometry y="26" width="300" height="26" as="geometry" />
        </mxCell>
        <mxCell id="fzTyoeFtxnWJiMsBnYOy-6" value="- operators: Array" style="text;strokeColor=none;fillColor=none;align=left;verticalAlign=top;spacingLeft=4;spacingRight=4;overflow=hidden;rotatable=0;points=[[0,0.5],[1,0.5]];portConstraint=eastwest;" parent="fzTyoeFtxnWJiMsBnYOy-2" vertex="1">
          <mxGeometry y="52" width="300" height="26" as="geometry" />
        </mxCell>
        <mxCell id="fzTyoeFtxnWJiMsBnYOy-7" value="- proprieties: Array" style="text;strokeColor=none;fillColor=none;align=left;verticalAlign=top;spacingLeft=4;spacingRight=4;overflow=hidden;rotatable=0;points=[[0,0.5],[1,0.5]];portConstraint=eastwest;" parent="fzTyoeFtxnWJiMsBnYOy-2" vertex="1">
          <mxGeometry y="78" width="300" height="26" as="geometry" />
        </mxCell>
        <mxCell id="fzTyoeFtxnWJiMsBnYOy-4" value="" style="line;strokeWidth=1;fillColor=none;align=left;verticalAlign=middle;spacingTop=-1;spacingLeft=3;spacingRight=3;rotatable=0;labelPosition=right;points=[];portConstraint=eastwest;" parent="fzTyoeFtxnWJiMsBnYOy-2" vertex="1">
          <mxGeometry y="104" width="300" height="8" as="geometry" />
        </mxCell>
        <mxCell id="fzTyoeFtxnWJiMsBnYOy-5" value="+ add(expression : TExpression, operator): void" style="text;strokeColor=none;fillColor=none;align=left;verticalAlign=top;spacingLeft=4;spacingRight=4;overflow=hidden;rotatable=0;points=[[0,0.5],[1,0.5]];portConstraint=eastwest;" parent="fzTyoeFtxnWJiMsBnYOy-2" vertex="1">
          <mxGeometry y="112" width="300" height="26" as="geometry" />
        </mxCell>
        <mxCell id="fzTyoeFtxnWJiMsBnYOy-8" value="+ dump(): String" style="text;strokeColor=none;fillColor=none;align=left;verticalAlign=top;spacingLeft=4;spacingRight=4;overflow=hidden;rotatable=0;points=[[0,0.5],[1,0.5]];portConstraint=eastwest;" parent="fzTyoeFtxnWJiMsBnYOy-2" vertex="1">
          <mxGeometry y="138" width="300" height="26" as="geometry" />
        </mxCell>
        <mxCell id="fzTyoeFtxnWJiMsBnYOy-9" value="+ setPropriety(propriety: String, value: String): void" style="text;strokeColor=none;fillColor=none;align=left;verticalAlign=top;spacingLeft=4;spacingRight=4;overflow=hidden;rotatable=0;points=[[0,0.5],[1,0.5]];portConstraint=eastwest;" parent="fzTyoeFtxnWJiMsBnYOy-2" vertex="1">
          <mxGeometry y="164" width="300" height="46" as="geometry" />
        </mxCell>
        <mxCell id="fzTyoeFtxnWJiMsBnYOy-10" value="+ getPropriety(propriety: String): String" style="text;strokeColor=none;fillColor=none;align=left;verticalAlign=top;spacingLeft=4;spacingRight=4;overflow=hidden;rotatable=0;points=[[0,0.5],[1,0.5]];portConstraint=eastwest;" parent="fzTyoeFtxnWJiMsBnYOy-2" vertex="1">
          <mxGeometry y="210" width="300" height="46" as="geometry" />
        </mxCell>
        <mxCell id="fzTyoeFtxnWJiMsBnYOy-13" value="" style="endArrow=open;html=1;endSize=12;startArrow=diamondThin;startSize=14;startFill=1;edgeStyle=orthogonalEdgeStyle;align=left;verticalAlign=bottom;exitX=-0.007;exitY=0.769;exitDx=0;exitDy=0;exitPerimeter=0;" parent="1" source="fzTyoeFtxnWJiMsBnYOy-3" edge="1">
          <mxGeometry x="-1" y="3" relative="1" as="geometry">
            <mxPoint x="210" y="139.5" as="sourcePoint" />
            <mxPoint x="370" y="139.5" as="targetPoint" />
            <Array as="points">
              <mxPoint x="20" y="326" />
              <mxPoint x="20" y="140" />
            </Array>
          </mxGeometry>
        </mxCell>
        <mxCell id="b-M2unAk0DY4yhwUUbCI-1" value="TSqlInstruction.class" style="swimlane;fontStyle=1;align=center;verticalAlign=top;childLayout=stackLayout;horizontal=1;startSize=26;horizontalStack=0;resizeParent=1;resizeParentMax=0;resizeLast=0;collapsible=1;marginBottom=0;" vertex="1" parent="1">
          <mxGeometry x="240" y="630" width="260" height="200" as="geometry" />
        </mxCell>
        <mxCell id="b-M2unAk0DY4yhwUUbCI-2" value="# sql: string" style="text;strokeColor=none;fillColor=none;align=left;verticalAlign=top;spacingLeft=4;spacingRight=4;overflow=hidden;rotatable=0;points=[[0,0.5],[1,0.5]];portConstraint=eastwest;" vertex="1" parent="b-M2unAk0DY4yhwUUbCI-1">
          <mxGeometry y="26" width="260" height="26" as="geometry" />
        </mxCell>
        <mxCell id="b-M2unAk0DY4yhwUUbCI-5" value="# criteria : TCriteria" style="text;strokeColor=none;fillColor=none;align=left;verticalAlign=top;spacingLeft=4;spacingRight=4;overflow=hidden;rotatable=0;points=[[0,0.5],[1,0.5]];portConstraint=eastwest;" vertex="1" parent="b-M2unAk0DY4yhwUUbCI-1">
          <mxGeometry y="52" width="260" height="28" as="geometry" />
        </mxCell>
        <mxCell id="b-M2unAk0DY4yhwUUbCI-3" value="" style="line;strokeWidth=1;fillColor=none;align=left;verticalAlign=middle;spacingTop=-1;spacingLeft=3;spacingRight=3;rotatable=0;labelPosition=right;points=[];portConstraint=eastwest;" vertex="1" parent="b-M2unAk0DY4yhwUUbCI-1">
          <mxGeometry y="80" width="260" height="8" as="geometry" />
        </mxCell>
        <mxCell id="b-M2unAk0DY4yhwUUbCI-4" value="+ setEntity(entity: string):void" style="text;strokeColor=none;fillColor=none;align=left;verticalAlign=top;spacingLeft=4;spacingRight=4;overflow=hidden;rotatable=0;points=[[0,0.5],[1,0.5]];portConstraint=eastwest;" vertex="1" parent="b-M2unAk0DY4yhwUUbCI-1">
          <mxGeometry y="88" width="260" height="26" as="geometry" />
        </mxCell>
        <mxCell id="b-M2unAk0DY4yhwUUbCI-6" value="+ getEntity():string" style="text;strokeColor=none;fillColor=none;align=left;verticalAlign=top;spacingLeft=4;spacingRight=4;overflow=hidden;rotatable=0;points=[[0,0.5],[1,0.5]];portConstraint=eastwest;" vertex="1" parent="b-M2unAk0DY4yhwUUbCI-1">
          <mxGeometry y="114" width="260" height="26" as="geometry" />
        </mxCell>
        <mxCell id="b-M2unAk0DY4yhwUUbCI-7" value="+ setCriteria(Criteria: Criteria):void" style="text;strokeColor=none;fillColor=none;align=left;verticalAlign=top;spacingLeft=4;spacingRight=4;overflow=hidden;rotatable=0;points=[[0,0.5],[1,0.5]];portConstraint=eastwest;" vertex="1" parent="b-M2unAk0DY4yhwUUbCI-1">
          <mxGeometry y="140" width="260" height="26" as="geometry" />
        </mxCell>
        <mxCell id="b-M2unAk0DY4yhwUUbCI-8" value="+ getInstruction(): string" style="text;strokeColor=none;fillColor=none;align=left;verticalAlign=top;spacingLeft=4;spacingRight=4;overflow=hidden;rotatable=0;points=[[0,0.5],[1,0.5]];portConstraint=eastwest;fontStyle=5" vertex="1" parent="b-M2unAk0DY4yhwUUbCI-1">
          <mxGeometry y="166" width="260" height="34" as="geometry" />
        </mxCell>
        <mxCell id="b-M2unAk0DY4yhwUUbCI-9" value="" style="endArrow=open;html=1;endSize=12;startArrow=diamondThin;startSize=14;startFill=1;edgeStyle=orthogonalEdgeStyle;align=left;verticalAlign=bottom;exitX=0;exitY=0.5;exitDx=0;exitDy=0;entryX=0.513;entryY=1.043;entryDx=0;entryDy=0;entryPerimeter=0;" edge="1" parent="1" source="b-M2unAk0DY4yhwUUbCI-5" target="fzTyoeFtxnWJiMsBnYOy-10">
          <mxGeometry x="-1" y="3" relative="1" as="geometry">
            <mxPoint x="237.9000000000001" y="746.4939999999999" as="sourcePoint" />
            <mxPoint x="470" y="560" as="targetPoint" />
            <Array as="points">
              <mxPoint x="120" y="696" />
              <mxPoint x="120" y="561" />
              <mxPoint x="294" y="561" />
            </Array>
          </mxGeometry>
        </mxCell>
        <mxCell id="b-M2unAk0DY4yhwUUbCI-19" style="edgeStyle=orthogonalEdgeStyle;rounded=0;orthogonalLoop=1;jettySize=auto;html=1;entryX=0.515;entryY=1;entryDx=0;entryDy=0;entryPerimeter=0;" edge="1" parent="1" source="b-M2unAk0DY4yhwUUbCI-10" target="b-M2unAk0DY4yhwUUbCI-8">
          <mxGeometry relative="1" as="geometry" />
        </mxCell>
        <mxCell id="b-M2unAk0DY4yhwUUbCI-10" value="TSqInsert" style="swimlane;fontStyle=1;align=center;verticalAlign=top;childLayout=stackLayout;horizontal=1;startSize=26;horizontalStack=0;resizeParent=1;resizeParentMax=0;resizeLast=0;collapsible=1;marginBottom=0;" vertex="1" parent="1">
          <mxGeometry x="20" y="880" width="220" height="112" as="geometry" />
        </mxCell>
        <mxCell id="b-M2unAk0DY4yhwUUbCI-12" value="" style="line;strokeWidth=1;fillColor=none;align=left;verticalAlign=middle;spacingTop=-1;spacingLeft=3;spacingRight=3;rotatable=0;labelPosition=right;points=[];portConstraint=eastwest;" vertex="1" parent="b-M2unAk0DY4yhwUUbCI-10">
          <mxGeometry y="26" width="220" height="8" as="geometry" />
        </mxCell>
        <mxCell id="b-M2unAk0DY4yhwUUbCI-13" value="+setRowData(collumn, value)" style="text;strokeColor=none;fillColor=none;align=left;verticalAlign=top;spacingLeft=4;spacingRight=4;overflow=hidden;rotatable=0;points=[[0,0.5],[1,0.5]];portConstraint=eastwest;" vertex="1" parent="b-M2unAk0DY4yhwUUbCI-10">
          <mxGeometry y="34" width="220" height="26" as="geometry" />
        </mxCell>
        <mxCell id="b-M2unAk0DY4yhwUUbCI-16" value="+setCriteria(criteria: TCriteria)" style="text;strokeColor=none;fillColor=none;align=left;verticalAlign=top;spacingLeft=4;spacingRight=4;overflow=hidden;rotatable=0;points=[[0,0.5],[1,0.5]];portConstraint=eastwest;" vertex="1" parent="b-M2unAk0DY4yhwUUbCI-10">
          <mxGeometry y="60" width="220" height="26" as="geometry" />
        </mxCell>
        <mxCell id="b-M2unAk0DY4yhwUUbCI-17" value="+getInstruction( ): string" style="text;strokeColor=none;fillColor=none;align=left;verticalAlign=top;spacingLeft=4;spacingRight=4;overflow=hidden;rotatable=0;points=[[0,0.5],[1,0.5]];portConstraint=eastwest;" vertex="1" parent="b-M2unAk0DY4yhwUUbCI-10">
          <mxGeometry y="86" width="220" height="26" as="geometry" />
        </mxCell>
      </root>
    </mxGraphModel>
  </diagram>
</mxfile>
